<?xml version="1.0" encoding="UTF-8"?>
<svg id="Layer_2" data-name="Layer 2" xmlns="http://www.w3.org/2000/svg" viewBox="0 0 434.82 399.35">
  <defs>
    <style>
      .cls-1 {
        fill: #231f20;
        stroke-width: 0px;
      }
    </style>
  </defs>
  <g id="Layer_1-2" data-name="Layer 1">
    <g>
      <path class="cls-1" d="M197.62,65.66c-27.32.68-66.26,3.01-102.57,17.61-37.66,17.57-55.17,29.83-72.12,49.74l-22.94-.43,4.87-22.5s16.19-29.74,89.98-58.73c52.07-20.46,86.95-17.77,110.28-17.77h.27c59.49.07,113.33,15.83,129.64,23.04,12.11,5.36,33.13,15.13,33.13,15.13,0,0,.1-8.17,2.07-32.46,1.95-23.95,4.93-28.61,7.79-38.18.48-1.62,2.84-1.41,3.03.27,1.24,11.33,5.57,35.04,20.24,76.32,6.69,18.82,23.63,58.18,31.5,74.68,1.27,2.65-1.31,5.5-4.08,4.5-16.63-6.02-54.4-19.68-65.45-23.47-20.78-7.12-61.37-12.94-79.92-15.36-2.45-.32-2.82-3.71-.5-4.55,10.68-3.85,27.78-9.89,35.13-11.78s24.96-4.07,24.96-4.07c0,0-12.5-12.57-28.54-17.33-49.39-14.67-88.86-15.36-116.78-14.67Z"/>
      <path class="cls-1" d="M237.2,333.69c27.32-.68,66.26-3.01,102.57-17.61,37.66-17.57,55.17-29.83,72.12-49.74l22.94.43-4.87,22.5s-16.19,29.74-89.98,58.73c-52.07,20.46-86.95,17.77-110.28,17.77h-.27c-59.49-.07-113.33-15.83-129.64-23.04-12.11-5.36-33.13-15.13-33.13-15.13,0,0-.1,8.17-2.07,32.46-1.95,23.95-4.93,28.61-7.79,38.18-.48,1.62-2.84,1.41-3.03-.27-1.24-11.33-5.57-35.04-20.24-76.32-6.69-18.82-23.63-58.18-31.5-74.68-1.27-2.65,1.31-5.5,4.08-4.5,16.63,6.02,54.4,19.68,65.45,23.47,20.78,7.12,61.37,12.94,79.92,15.36,2.45.32,2.82,3.71.5,4.55-10.68,3.85-27.78,9.89-35.13,11.78-7.12,1.83-24.96,4.07-24.96,4.07,0,0,12.5,12.57,28.54,17.33,49.39,14.67,88.86,15.36,116.78,14.67Z"/>
    </g>
  </g>
</svg>