<?xml version="1.0" encoding="UTF-8"?>
<svg id="Layer_2" data-name="Layer 2" xmlns="http://www.w3.org/2000/svg" width="349.87" height="395" viewBox="0 0 349.87 395">
  <defs>
    <style>
      .cls-1 {
        font-family: CMUSerif-Bold, 'CMU Serif';
        font-size: 111.34px;
        font-weight: 700;
      }

      .cls-1, .cls-2 {
        fill: #231f20;
      }

      .cls-2 {
        stroke-width: 0px;
      }
    </style>
  </defs>
  <g id="Layer_1-2" data-name="Layer 1">
    <text class="cls-1" transform="translate(141.82 93.86)"><tspan x="0" y="0">1</tspan></text>
    <text class="cls-1" transform="translate(285.89 338.62)"><tspan x="0" y="0">3</tspan></text>
    <text class="cls-1" transform="translate(7.1 338.62)"><tspan x="0" y="0">5</tspan></text>
    <g id="_Radial_Repeat_" data-name="&amp;lt;Radial Repeat&amp;gt;">
      <path class="cls-2" d="M208.16,75.39c22.15-2.63,64.15,16.82,93.52,55.22,24.01,31.4,18.07,97.69,18.07,97.69,0,0-5.47-2.12-7.79-3.54-1.46-.89-4.58-3.92-7.02-6.38-.68-.69-1.81.08-1.42.96,2.88,6.62,3.19,7.69,5.42,12.55,1.75,3.8,9.31,20.67,10.14,24.12.24,1.01,1.56,1.27,2.17.42,2.75-3.87,8.66-11.43,11.25-14.19,4.47-4.76,12.68-12.53,16.68-16.66.46-.48-.05-1.25-.67-1.02-3.7,1.41-10.24,3.83-12.41,4.19-2.65.44-6.44.13-6.44.13,0,0,13.81-57.61-18.95-105.05-28.89-41.84-77.07-64.85-101.3-63.97l-4.86,8.07,3.61,7.46Z"/>
    </g>
    <g id="_Radial_Repeat_-2" data-name="&amp;lt;Radial Repeat&amp;gt;">
      <path class="cls-2" d="M278.58,340.51c-8.57,20.49-50.94,41.93-102.22,44.54-36.04,1.83-95.82-31.76-95.82-31.76,0,0,4.45-3.68,6.79-4.97,1.47-.81,5.55-2,8.81-2.88.91-.25.82-1.6-.12-1.71-6.99-.82-8.04-1.09-13.24-1.59-4.06-.39-21.99-2.29-25.31-3.29-.98-.3-1.83.72-1.41,1.67,1.93,4.32,5.44,13.22,6.51,16.84,1.84,6.25,4.41,17.25,5.95,22.78.18.64,1.08.59,1.18-.07.61-3.91,1.75-10.78,2.5-12.84.92-2.51,3.02-5.65,3.02-5.65,0,0,52.5,33.26,101.38,33.43,53.12.19,102.23-26.09,113.29-47.51l-3.24-6.38-8.06-.61Z"/>
    </g>
    <g id="_Radial_Repeat_-3" data-name="&amp;lt;Radial Repeat&amp;gt;">
      <path class="cls-2" d="M16.04,248.91c-5.67-27.32-9.54-77.54,26.44-118.86,43.11-49.51,84.19-54.73,84.19-54.73,0,0-.01,5.75-.51,8.36-.31,1.64-1.99,5.51-3.4,8.56-.39.85.71,1.65,1.39,1,5.08-4.81,5.96-5.44,9.65-9.08,2.88-2.85,15.76-15.3,18.64-17.19.85-.55.62-1.86-.38-2.14-4.55-1.3-13.61-4.32-17.07-5.83-5.97-2.6-16.05-7.69-21.28-10.06-.61-.27-1.14.45-.7.95,2.61,2.97,7.16,8.24,8.26,10.14,1.35,2.31,2.41,5.92,2.41,5.92,0,0-46.81,5.3-91.37,60.7C-6.96,175.48-2.13,225.48,4.46,253.23l6.96,1.62,4.62-5.94Z"/>
    </g>
  </g>
</svg>