<?xml version="1.0" encoding="UTF-8"?>
<svg id="Layer_2" data-name="Layer 2" xmlns="http://www.w3.org/2000/svg" width="464.13" height="241.26" viewBox="0 0 464.13 241.26">
  <defs>
    <style>
      .cls-1, .cls-2 {
        stroke-width: 0px;
      }

      .cls-2 {
        fill: #202020;
      }
    </style>
  </defs>
  <g id="large_circle" data-name="large circle">
    <path class="cls-2" d="M226.9,171.7l3.99,1.81c-4.64,5.79-9.75,11-15.13,15.63,2.35-6.71,4.07-13.47,5.09-20.19l3.99,1.81.32-.69.16-.35.29-.67c4.12-9.47,6.95-19.49,8.43-29.71,2.96-20.44.47-41.65-7.38-60.77-7.82-19.12-20.81-36.07-37.21-48.62-16.39-12.6-36.22-20.54-56.71-23.04l.27-2.27c20.89,2.55,41.12,10.65,57.83,23.49,16.73,12.79,29.96,30.08,37.94,49.57,8.01,19.49,10.54,41.13,7.53,61.96-1.51,10.42-4.4,20.63-8.6,30.29l-.29.69-.16.35-.33.71Z"/>
    <path class="cls-2" d="M22.18,191.59l-3.56,2.55-1.9-5.19c-.59-1.73-1.07-3.52-1.59-5.25l-.76-2.6c-.23-.87-.41-1.77-.61-2.64l-1.15-5.22,3.59,3.92c.6.64,1.17,1.29,1.79,1.91l1.9,1.82c1.27,1.19,2.48,2.41,3.78,3.54l3.95,3.29-3.56,2.55.43.63.22.31.11.16.05.08.26.36c6.15,8.29,13.4,15.76,21.51,22.16,16.19,12.82,35.85,21.17,56.31,23.92,20.45,2.84,41.64.13,60.68-7.87,19.06-7.94,35.92-21.05,48.34-37.55l1.82,1.37c-12.66,16.83-29.86,30.19-49.29,38.29-9.71,4.06-19.96,6.82-30.4,8.16-10.44,1.35-21.05,1.29-31.47-.14-20.86-2.8-40.92-11.32-57.42-24.4-8.26-6.52-15.65-14.14-21.92-22.59l-.27-.37-.06-.08-.11-.16-.22-.32-.44-.64Z"/>
    <path class="cls-2" d="M107.26,4.36l-.42-4.36c7.33,1.14,14.39,2.94,21.09,5.28-6.99,1.32-13.7,3.25-20.04,5.71l-.42-4.36-1.87.18c-5.12.62-10.23,1.46-15.22,2.77-2.52.57-4.97,1.39-7.45,2.11-1.23.4-2.44.85-3.65,1.28l-1.82.65-1.79.73-3.58,1.47-3.51,1.64c-1.18.52-2.32,1.13-3.46,1.73-1.14.61-2.3,1.17-3.41,1.83-4.49,2.54-8.81,5.39-12.96,8.46-8.21,6.25-15.7,13.49-21.99,21.68-6.39,8.11-11.55,17.17-15.57,26.67-3.89,9.56-6.67,19.59-7.92,29.85-2.73,20.48.22,41.65,8.35,60.63l-2.1.9C1.24,149.83-1.77,128.24,1.01,107.37c1.27-10.45,4.1-20.69,8.07-30.43,4.1-9.69,9.36-18.92,15.87-27.19,6.42-8.34,14.05-15.73,22.42-22.1,4.22-3.14,8.63-6.04,13.21-8.63,1.13-.67,2.32-1.24,3.48-1.86,1.16-.62,2.32-1.23,3.53-1.77l3.58-1.67,3.65-1.5,1.83-.74,1.86-.66c1.24-.43,2.48-.89,3.73-1.3,2.53-.74,5.02-1.57,7.59-2.15,5.09-1.34,10.3-2.19,15.52-2.82l1.9-.18Z"/>
  </g>
  <g id="small_circle" data-name="small circle">
    <path class="cls-2" d="M164.97,186.42l2.6,3.52c4.82-5.86,8.66-12.19,11.51-18.69-5.73,4.22-11.85,7.49-18.06,9.81l2.6,3.52c-.2.15-.4.31-.61.46l-.77.53c-4.44,3.13-9.22,5.77-14.23,7.88-10.01,4.24-20.96,6.17-31.81,5.8-10.86-.35-21.63-3.07-31.34-7.95-9.72-4.86-18.36-11.86-25.16-20.33l-1.78,1.43c7.01,8.72,15.91,15.93,25.92,20.94,10,5.03,21.11,7.83,32.29,8.19,11.17.39,22.46-1.6,32.77-5.97,5.16-2.17,10.08-4.9,14.66-8.12l.79-.54c.21-.15.42-.31.62-.47Z"/>
    <path class="cls-2" d="M41.08,131.08l-4.36.42c2.53,7.15,6.01,13.71,10.18,19.46-.73-7.07-.42-14,.81-20.52l-4.36.42-.14-1.69c-.21-2.74-.25-5.5-.15-8.25,0-1.38.17-2.75.24-4.12.12-1.37.3-2.73.47-4.1,1.59-10.89,5.53-21.44,11.6-30.63,3-4.62,6.54-8.88,10.47-12.72,3.93-3.86,8.28-7.28,12.96-10.17,9.33-5.85,19.97-9.53,30.9-10.87l-.27-2.27c-11.25,1.37-22.22,5.17-31.83,11.19-4.82,2.98-9.31,6.5-13.35,10.47-4.06,3.96-7.7,8.34-10.79,13.1-6.25,9.47-10.32,20.34-11.95,31.56-.17,1.41-.36,2.81-.48,4.22-.08,1.41-.25,2.83-.25,4.24-.1,2.83-.07,5.67.15,8.5l.15,1.74Z"/>
    <path class="cls-2" d="M147.84,51.11l1.63-4.06c-3.75-.54-7.5-.73-11.16-.74-3.67.02-7.29.34-10.8.82,3.3,1.34,6.46,2.82,9.45,4.53,2.97,1.74,5.8,3.57,8.4,5.63l1.63-4.06.71.28.86.38c5.12,2.22,10.04,4.94,14.55,8.24,9.06,6.54,16.63,15.1,22.04,24.88,10.93,19.53,12.37,44,3.96,64.73l2.12.85c8.66-21.36,7.18-46.55-4.08-66.68-5.57-10.07-13.37-18.89-22.7-25.63-4.64-3.4-9.71-6.2-14.99-8.49l-.89-.39-.73-.29Z"/>
  </g>
  <g id="text">
    <g>
      <path class="cls-1" d="M80.67,104.94c0-1.13.18-2.29.53-3.45s.88-2.3,1.59-3.39,1.56-2.06,2.55-2.9,2.18-1.52,3.57-2.04c1.39-.51,2.87-.77,4.46-.77,1.8,0,3.28.61,4.45,1.83.36-.27.71-.55,1.05-.82.34-.28.58-.47.72-.59.14-.12.27-.22.42-.3.14-.08.28-.12.41-.12.32,0,.49.15.49.44,0,.09-.53,2.26-1.6,6.53-.07.27-.15.45-.24.53s-.27.12-.55.12h-.18c-.31,0-.51-.03-.61-.1-.1-.07-.15-.2-.15-.39,0-.07.01-.24.04-.5s.04-.5.04-.71c0-.5-.06-1-.18-1.5-.12-.5-.32-.99-.6-1.48-.28-.49-.69-.89-1.23-1.19-.54-.31-1.18-.46-1.93-.46-.36,0-.74.03-1.15.1-.4.07-.94.2-1.61.4-.67.2-1.35.55-2.03,1.05-.69.5-1.31,1.13-1.85,1.89-.83,1.15-1.49,2.68-2,4.59-.5,1.91-.76,3.39-.76,4.45,0,.88.15,1.64.46,2.28.31.64.72,1.12,1.24,1.45s1.05.56,1.57.71c.53.14,1.09.22,1.69.22,1.98,0,3.72-.85,5.23-2.54.46-.54.83-1.05,1.11-1.55.27-.5.43-.87.47-1.11s.13-.44.25-.58c.12-.15.32-.22.58-.22h.16c.46,0,.69.15.69.44,0,.09-.04.26-.11.51-.62,1.87-1.79,3.4-3.53,4.57-1.74,1.18-3.58,1.77-5.53,1.77-.72,0-1.43-.06-2.13-.19-.7-.13-1.41-.36-2.13-.69-.72-.33-1.35-.76-1.88-1.28-.53-.52-.96-1.21-1.31-2.07-.34-.86-.52-1.83-.52-2.93Z"/>
      <path class="cls-1" d="M101.03,109.13c0-.33.07-.73.22-1.21l2.97-11.96c.04-.18.11-.44.2-.8.09-.35.16-.63.2-.82-.16-.02-.36-.03-.59-.03s-.42,0-.53-.01c-.12,0-.23-.03-.35-.07-.11-.04-.2-.09-.26-.17s-.09-.2-.09-.35c0-.31.1-.53.3-.65.07-.05.44-.1,1.11-.15.67-.04,1.32-.08,1.94-.09l.95-.05c.43,0,.65.18.65.54,0,.09-.02.2-.05.34l-3.61,14.53c-.23.86-.34,1.46-.34,1.8,0,.54.16.81.49.82.34,0,.64-.26.89-.77.25-.51.46-1.08.62-1.69.16-.61.26-.94.3-1,.1-.14.31-.22.61-.22.51,0,.77.15.78.44,0,.12-.06.38-.18.78s-.29.87-.53,1.42c-.23.55-.58,1.03-1.05,1.44-.47.41-.99.61-1.56.61-.81,0-1.53-.24-2.16-.73-.63-.49-.95-1.14-.95-1.94Z"/>
      <path class="cls-1" d="M109.49,107.19c0-2.03.75-3.87,2.25-5.52,1.5-1.65,3.45-2.48,5.84-2.48,1.56,0,2.8.4,3.72,1.2.92.8,1.38,1.93,1.38,3.38,0,.88-.17,1.78-.51,2.71s-.83,1.79-1.47,2.59-1.49,1.46-2.56,1.97c-1.06.51-2.24.77-3.52.77-1.56,0-2.81-.4-3.74-1.21-.93-.81-1.39-1.94-1.39-3.41ZM112.45,108.44c0,.84.22,1.45.67,1.81.44.37.96.55,1.55.55.39,0,.77-.06,1.12-.18.35-.12.66-.28.94-.49.27-.21.52-.43.74-.67.22-.24.42-.52.59-.83s.32-.61.44-.87c.12-.27.23-.55.34-.86.1-.31.17-.56.22-.76.04-.2.09-.4.15-.6l.05-.26c.31-1.22.46-2.13.46-2.75,0-.84-.22-1.44-.66-1.8-.44-.36-.96-.54-1.55-.54-2.27,0-3.8,1.83-4.59,5.5-.31,1.22-.46,2.13-.46,2.75Z"/>
      <path class="cls-1" d="M123.84,107.19c0-2.03.75-3.87,2.25-5.52,1.5-1.65,3.42-2.48,5.76-2.48,1.01,0,1.84.24,2.48.72s.96,1.1.96,1.88c0,.6-.19,1.1-.57,1.5-.38.4-.84.6-1.38.6-.38,0-.69-.11-.95-.34-.25-.22-.38-.53-.38-.9,0-.34.11-.7.34-1.07.22-.37.58-.62,1.07-.76-.42-.41-.94-.62-1.57-.62-.99,0-1.88.39-2.66,1.18-.55.55-1.03,1.41-1.43,2.58-.4,1.17-.66,2.14-.78,2.91-.12.77-.18,1.29-.18,1.56,0,.77.2,1.36.61,1.76.41.4.98.6,1.71.6,1.88,0,3.46-.64,4.77-1.92.36-.36.6-.54.73-.54.16,0,.33.1.51.3s.28.37.28.52c0,.11-.08.26-.23.46-.15.2-.4.43-.75.68-.34.26-.75.49-1.22.71-.47.22-1.07.4-1.8.56-.73.15-1.52.23-2.37.23-1.62,0-2.89-.4-3.82-1.21-.93-.81-1.39-1.94-1.39-3.41Z"/>
      <path class="cls-1" d="M137.34,110.63c0-.16.04-.38.11-.67l3.54-14.32c.2-.77.33-1.28.38-1.54-.39-.03-.69-.04-.89-.04h-.1c-.56,0-.85-.16-.86-.48,0-.29.15-.47.44-.55.29-.07.93-.13,1.93-.16.69-.04,1.25-.06,1.7-.08.02,0,.06,0,.12-.01s.11-.01.14-.01c.43,0,.65.18.65.54l-.08.4-2.58,10.4c.5-.34,1.07-.82,1.7-1.44.63-.62,1.17-1.16,1.61-1.63.45-.47.98-.89,1.59-1.27s1.24-.57,1.87-.57c.68,0,1.16.22,1.45.67.28.44.43.93.43,1.47,0,.81-.21,1.4-.61,1.78-.41.38-.86.57-1.35.57-.38,0-.69-.11-.93-.33-.25-.22-.37-.52-.37-.9,0-.41.15-.81.46-1.2.3-.39.75-.62,1.33-.69-.14-.24-.31-.35-.51-.35-.63,0-1.28.26-1.94.78-.66.52-1.38,1.19-2.15,2.01s-1.39,1.4-1.85,1.74v.03c2.77.31,4.15,1.26,4.15,2.85,0,.23-.03.59-.09,1.08-.06.49-.09.91-.09,1.25,0,.58.18.87.54.87.41,0,.76-.26,1.06-.78.29-.52.52-1.09.67-1.7s.26-.94.32-1c.11-.12.38-.19.81-.2.44,0,.67.15.67.44,0,.12-.07.39-.22.81-.15.42-.36.89-.63,1.42s-.67,1-1.18,1.4c-.51.41-1.08.61-1.69.61-.79,0-1.5-.25-2.13-.74-.63-.5-.94-1.18-.94-2.04,0-.14.02-.36.07-.66s.07-.52.07-.67c0-.98-.82-1.63-2.47-1.96-.74,3.23-1.23,5.01-1.48,5.37-.38.47-.83.7-1.35.71-.34,0-.64-.11-.88-.33s-.36-.5-.36-.84Z"/>
      <path class="cls-1" d="M152.15,106.24c0-.11.1-.56.3-1.36.05-.24.14-.4.26-.5.12-.1.32-.15.6-.15h6.1c.46,0,.7.18.71.54,0,.16-.12.65-.36,1.46-.09.34-.34.51-.75.51h-6.13c-.49,0-.74-.17-.74-.51Z"/>
      <path class="cls-1" d="M91.77,135.84c0-.2.09-.51.27-.94.18-.42.43-.89.74-1.39.31-.5.75-.95,1.3-1.32s1.15-.57,1.78-.57c.79,0,1.46.23,2.01.68.55.45.83,1.04.83,1.75,0,.34-.32,1.36-.96,3.05-.64,1.69-.96,3.03-.96,4,0,.77.19,1.32.57,1.63.38.32.83.47,1.35.47.55,0,1.04-.26,1.46-.77.42-.51.63-.97.63-1.36v-.43c0-.55.27-1.94.82-4.17.55-2.22.88-3.45,1-3.67.34-.59.83-.88,1.48-.88h.03c.33,0,.61.1.86.31.24.21.37.48.37.82,0,.2-.3,1.46-.91,3.77s-.91,3.77-.91,4.38c0,1.34.59,2,1.77,2,.46,0,.88-.15,1.26-.45s.7-.76.99-1.38.52-1.23.71-1.82c.19-.59.4-1.35.63-2.28.09-.31.13-.58.13-.83,0-.55-.26-1.08-.78-1.59-.52-.51-.78-.95-.78-1.33,0-.45.19-.88.58-1.31.39-.43.84-.64,1.37-.64.43,0,.82.19,1.17.57s.53.97.53,1.78c0,.86-.25,2.19-.76,3.99s-1.09,3.21-1.77,4.22c-.91,1.37-2.07,2.06-3.48,2.06-1.7,0-2.93-.46-3.68-1.38h-.03c-.79.91-1.74,1.38-2.85,1.38-1.25,0-2.31-.28-3.17-.82-.86-.55-1.29-1.47-1.29-2.78,0-.9.34-2.29,1.03-4.17s1.03-2.99,1.03-3.33-.14-.51-.42-.51c-.36,0-.74.22-1.15.67-.39.45-.71,1.03-.96,1.74s-.39,1.08-.4,1.09c-.11.12-.31.18-.6.18h-.04c-.5,0-.75-.15-.75-.45Z"/>
      <path class="cls-1" d="M112.49,135.84c0-.27.14-.72.42-1.34.28-.62.76-1.26,1.44-1.91.68-.65,1.44-.97,2.27-.97.77,0,1.44.23,1.98.68.55.46.82,1.04.82,1.74,0,.43-.48,1.87-1.44,4.31-.96,2.44-1.44,3.89-1.44,4.34,0,.34.14.51.43.51.37,0,.72-.18,1.05-.53.33-.35.59-.73.76-1.13s.33-.8.48-1.2c.15-.39.23-.6.25-.62.11-.12.3-.19.57-.2h.16c.44,0,.66.14.68.43,0,.12-.05.34-.16.65-.11.31-.28.67-.51,1.08-.24.41-.51.8-.82,1.17s-.7.69-1.18.95-.97.4-1.51.4c-.74,0-1.39-.22-1.96-.65-.57-.44-.85-1.03-.85-1.79,0-.43.48-1.87,1.44-4.3.96-2.44,1.44-3.88,1.44-4.33,0-.34-.15-.51-.45-.51-.45,0-.91.32-1.38.96-.27.38-.48.76-.63,1.14s-.24.67-.28.88c-.04.21-.11.38-.22.51s-.29.2-.54.2h-.17c-.44,0-.66-.16-.66-.47ZM117.18,127.03c0-.48.2-.91.59-1.28.39-.37.83-.55,1.33-.55.38,0,.71.13.96.38s.39.56.39.92c0,.45-.19.87-.58,1.25s-.83.58-1.35.58c-.38,0-.7-.12-.96-.36-.25-.24-.38-.55-.38-.93Z"/>
      <path class="cls-1" d="M122.26,141.48c0-.62.19-1.12.57-1.53s.83-.61,1.37-.61c.4,0,.72.12.96.35s.37.53.37.88c0,.32-.11.66-.32,1.02-.21.36-.56.62-1.03.77.61.55,1.45.83,2.52.84,1.37,0,2.34-.29,2.91-.88.57-.59.85-1.17.85-1.75,0-.39-.15-.72-.46-.97-.31-.26-.64-.43-1.01-.52-.36-.09-.81-.18-1.34-.29-.53-.11-.9-.21-1.11-.29-.52-.18-.99-.49-1.42-.94-.43-.45-.64-1.03-.64-1.73,0-.33.07-.69.2-1.11.14-.41.37-.87.69-1.38.32-.5.84-.92,1.55-1.26.71-.33,1.56-.5,2.56-.5,1.12,0,2.02.23,2.69.68.67.45,1,1.04,1,1.77,0,.6-.19,1.06-.56,1.38s-.76.49-1.17.49c-.35,0-.64-.11-.86-.32s-.33-.48-.33-.79c0-.67.36-1.17,1.08-1.52-.53-.47-1.17-.7-1.94-.7-1.05,0-1.78.23-2.2.69s-.63.91-.63,1.34c0,.29.09.53.29.71.22.21.49.35.82.43.33.08.73.16,1.23.26s.91.2,1.25.32c.6.21,1.14.58,1.64,1.09.5.52.75,1.19.75,2.02,0,.41-.09.86-.26,1.34-.17.48-.46.99-.86,1.53-.4.54-1.01.99-1.84,1.34-.83.35-1.82.53-2.96.53-1.34,0-2.4-.25-3.18-.74-.78-.5-1.17-1.16-1.17-1.98Z"/>
      <path class="cls-1" d="M136.05,139.47c0-2.14.75-3.99,2.24-5.54,1.49-1.55,3.38-2.33,5.68-2.33,1,0,1.8.24,2.42.73.62.49.93,1.12.93,1.91,0,1.03-.45,1.89-1.35,2.56-1.08.81-3.07,1.22-5.97,1.23h-.59c-.29,1.25-.44,2.15-.44,2.7,0,.8.21,1.42.61,1.84.41.42.97.64,1.68.64,1.77,0,3.3-.61,4.61-1.82.07-.07.14-.15.22-.23s.14-.14.18-.18c.04-.04.08-.08.12-.12s.08-.08.11-.08c.03,0,.07-.01.12-.01.14,0,.3.1.48.29.18.2.26.37.26.52,0,.11-.07.26-.21.46s-.38.43-.71.68c-.33.26-.73.49-1.18.71-.45.22-1.04.4-1.76.56-.72.15-1.49.23-2.33.23-1.59,0-2.85-.42-3.76-1.25-.91-.83-1.37-2-1.37-3.49ZM139.68,137.02c4.02,0,6.02-.93,6.02-2.8,0-.49-.16-.88-.48-1.18-.32-.3-.74-.45-1.25-.45-.22,0-.45.02-.69.07-.24.04-.55.15-.92.33s-.71.42-1.02.71c-.31.3-.62.73-.93,1.3-.31.57-.55,1.24-.73,2.01Z"/>
    </g>
    <path class="cls-1" d="M47.74,154.35v-1.27h.55c2.25,0,4.08-.51,5.48-1.54.15-.12.34-.18.57-.18.31,0,.5.06.57.17s.1.34.1.69v15.56h3.92v1.27c-.8-.05-2.61-.08-5.44-.08s-4.64.03-5.44.08v-1.27h3.88v-13.96c-1.15.36-2.36.54-3.62.54h-.56Z"/>
    <path class="cls-1" d="M178.54,166.54c0-.67.18-1.18.55-1.55.37-.36.86-.55,1.47-.55s1.12.19,1.51.57.59.87.59,1.47c0,1.06-.54,1.74-1.61,2.02.98.61,2.13.92,3.43.91.54,0,1-.11,1.38-.32.38-.21.66-.45.84-.71s.32-.6.43-1.03c.1-.43.16-.77.17-1.01,0-.25.01-.56.01-.93,0-.4,0-.71-.01-.96,0-.24-.07-.58-.18-1.02-.11-.44-.26-.79-.45-1.04-.19-.25-.48-.48-.88-.69-.4-.21-.87-.31-1.43-.31h-1.19c-.21,0-.35,0-.43-.01-.08,0-.16-.05-.24-.12-.08-.07-.11-.19-.11-.36,0-.3.11-.46.33-.47.2-.04.64-.07,1.31-.11.45-.02.85-.12,1.19-.31s.61-.43.8-.74c.19-.3.35-.6.48-.89.13-.29.22-.6.27-.95s.08-.59.09-.74.01-.29.01-.41c0-1.74-.78-2.61-2.33-2.61-1.18,0-2.19.32-3,.97,1.07.25,1.6.88,1.6,1.88,0,.51-.17.95-.53,1.31-.35.36-.82.54-1.41.54-.53,0-.98-.18-1.35-.53s-.55-.81-.55-1.37c0-1.1.5-2.02,1.49-2.76,1-.74,2.3-1.11,3.9-1.11,1.83,0,3.26.36,4.3,1.08,1.03.72,1.55,1.62,1.55,2.69s-.38,2-1.13,2.78c-.75.77-1.65,1.32-2.68,1.65.91.2,1.7.49,2.36.86.66.37,1.15.78,1.46,1.24.32.46.54.89.67,1.29.13.4.2.82.2,1.25,0,1.39-.57,2.6-1.72,3.63-1.14,1.03-2.84,1.54-5.09,1.54-1.76,0-3.22-.38-4.37-1.13-1.15-.75-1.72-1.73-1.72-2.93Z"/>
    <path class="cls-1" d="M112.66,49.71c0-.5.13-.91.4-1.21.27-.31.53-.5.78-.57s.48-.11.69-.11c.43,0,.84.15,1.23.45.39.3.58.76.58,1.38,0,.53-.17.96-.5,1.28-.33.32-.75.49-1.25.53.83,1.11,1.99,1.67,3.48,1.67.45,0,.85-.05,1.2-.16.35-.1.64-.24.87-.4.23-.16.42-.38.57-.66s.27-.53.35-.76c.08-.23.14-.53.18-.91.04-.38.06-.67.07-.89,0-.22.01-.51.01-.89,0-.58,0-1.02-.01-1.32s-.05-.69-.13-1.17c-.08-.48-.2-.84-.36-1.08-.16-.24-.4-.46-.72-.66-.32-.2-.71-.3-1.17-.3-1.56,0-2.77.5-3.63,1.51-.18.22-.37.33-.59.32-.18,0-.31-.04-.4-.12-.09-.08-.15-.17-.16-.27-.02-.1-.03-.25-.03-.44v-7.88c0-.18,0-.31.01-.39,0-.08.04-.16.1-.23s.15-.11.27-.11c.02,0,.13.04.34.11,1.46.5,2.86.75,4.19.75,1.44,0,2.82-.25,4.13-.75.2-.07.34-.11.41-.11.25,0,.38.16.38.47,0,.2-.16.5-.47.88s-.74.8-1.26,1.23c-.52.43-1.21.81-2.05,1.13s-1.73.49-2.65.49c-.62,0-1.27-.06-1.96-.18v3.56c.91-.63,2.07-.95,3.48-.95,1.92,0,3.43.53,4.51,1.59,1.08,1.06,1.62,2.4,1.62,4.02s-.63,3.05-1.89,4.12c-1.26,1.08-2.96,1.62-5.08,1.62-1.62,0-2.94-.47-3.97-1.4s-1.54-2-1.54-3.2Z"/>
    <g>
      <path class="cls-1" d="M236.12,57.98c0-1.13.18-2.29.53-3.45.35-1.17.88-2.3,1.59-3.39.71-1.09,1.56-2.06,2.55-2.9s2.18-1.52,3.57-2.04c1.39-.51,2.87-.77,4.46-.77,1.8,0,3.28.61,4.45,1.83.36-.27.71-.55,1.05-.82.34-.28.58-.47.72-.59.14-.12.27-.22.42-.3s.28-.12.41-.12c.33,0,.49.15.49.44,0,.09-.53,2.26-1.59,6.53-.07.27-.15.45-.24.53-.09.08-.27.12-.55.12h-.18c-.31,0-.51-.03-.61-.1-.1-.07-.15-.2-.15-.39,0-.07.01-.24.04-.5s.04-.5.04-.71c0-.5-.06-1-.18-1.5-.12-.5-.32-.99-.6-1.48-.28-.49-.69-.89-1.23-1.19s-1.18-.46-1.93-.46c-.36,0-.74.03-1.15.1-.4.07-.94.2-1.61.4-.67.2-1.34.55-2.03,1.05s-1.31,1.13-1.85,1.89c-.83,1.15-1.49,2.68-2,4.59-.5,1.91-.76,3.39-.76,4.45,0,.88.15,1.64.46,2.28s.72,1.12,1.24,1.45,1.05.56,1.57.71c.53.14,1.09.22,1.69.22,1.97,0,3.72-.85,5.23-2.54.47-.54.83-1.05,1.11-1.55s.43-.87.47-1.11c.04-.24.13-.44.25-.58.12-.15.32-.22.58-.22h.16c.46,0,.7.15.7.44,0,.09-.04.26-.11.51-.62,1.87-1.79,3.4-3.53,4.57s-3.58,1.77-5.53,1.77c-.72,0-1.43-.06-2.13-.19-.7-.13-1.41-.36-2.13-.69-.72-.33-1.35-.76-1.88-1.28-.53-.52-.96-1.21-1.31-2.07-.34-.86-.52-1.83-.52-2.93Z"/>
      <path class="cls-1" d="M256.92,60.23c0-2.03.75-3.87,2.25-5.52,1.5-1.65,3.45-2.48,5.84-2.48,1.56,0,2.8.4,3.72,1.2.92.8,1.38,1.93,1.38,3.38,0,.88-.17,1.78-.51,2.71-.34.92-.83,1.79-1.47,2.59s-1.49,1.46-2.56,1.97c-1.07.51-2.24.77-3.52.77-1.56,0-2.81-.4-3.74-1.21-.93-.81-1.39-1.94-1.39-3.41ZM259.89,61.48c0,.84.22,1.45.67,1.81.44.37.96.55,1.55.55.4,0,.77-.06,1.12-.18.35-.12.66-.28.94-.49s.52-.43.75-.67c.22-.24.42-.52.59-.83.17-.32.32-.61.44-.87.12-.27.23-.55.34-.86.1-.31.17-.56.22-.76.04-.2.09-.4.15-.6l.05-.26c.31-1.22.46-2.13.46-2.75,0-.84-.22-1.44-.66-1.8-.44-.36-.96-.54-1.55-.54-2.27,0-3.8,1.83-4.59,5.5-.31,1.22-.46,2.13-.46,2.75Z"/>
      <path class="cls-1" d="M272.09,56.48c0-.17.09-.47.27-.9.18-.42.42-.89.72-1.4.3-.51.74-.96,1.31-1.34.57-.38,1.17-.58,1.83-.58.72,0,1.37.22,1.95.67.58.45.86,1.03.86,1.75,0,.34-.33,1.39-.98,3.14-.65,1.75-.98,3.16-.98,4.22,0,1.2.47,1.81,1.42,1.81.77,0,1.48-.35,2.11-1.05.12-.14.23-.26.31-.35.08-.09.15-.19.19-.3.04-.11.07-.18.08-.22s.03-.12.05-.25c.03-.13.05-.24.07-.32l1.78-7.2c.29-1.06.88-1.6,1.75-1.6.34,0,.63.1.85.31.22.21.34.48.34.82,0,.24-.35,1.73-1.06,4.48-.71,2.75-1.06,4.36-1.06,4.83,0,.55.17.83.51.84.6,0,1.16-1.02,1.67-3.06.05-.2.12-.35.2-.44s.17-.14.26-.16c.09-.02.24-.03.43-.03.43,0,.65.15.65.44,0,.07-.03.24-.09.51s-.18.62-.35,1.05c-.17.43-.38.84-.62,1.23-.24.39-.57.73-.97,1.02-.41.29-.84.44-1.32.44-1.22,0-2.14-.46-2.76-1.38-1.01.91-2.09,1.38-3.23,1.38-1.1,0-2.03-.26-2.79-.77-.76-.51-1.15-1.4-1.15-2.67,0-1.01.35-2.45,1.05-4.32.7-1.87,1.05-2.97,1.05-3.32s-.14-.51-.42-.51c-.45,0-.88.26-1.3.78-.36.47-.64,1.03-.85,1.69-.21.66-.35,1.02-.44,1.09-.14.09-.35.13-.62.13h-.04c-.44,0-.66-.16-.66-.47Z"/>
      <path class="cls-1" d="M288.82,56.48c0-.05.03-.21.09-.47.06-.26.17-.61.34-1.04.16-.43.36-.84.61-1.24.24-.4.57-.74.98-1.03s.87-.44,1.36-.44c.55,0,1.13.15,1.72.44.59.29,1.01.78,1.25,1.46,1.24-1.27,2.61-1.92,4.11-1.92,1.15,0,2.06.25,2.73.75.67.5,1.01,1.28,1.01,2.34,0,.9-.37,2.38-1.11,4.44s-1.11,3.25-1.11,3.58c0,.34.14.51.43.51.43,0,.85-.25,1.26-.76.38-.47.67-1.03.89-1.69.21-.66.37-1.04.45-1.11.14-.09.35-.13.63-.13.45,0,.68.15.69.46,0,.27-.14.72-.43,1.35-.29.63-.77,1.27-1.45,1.92-.68.65-1.44.98-2.27.98-.74,0-1.39-.22-1.95-.65-.57-.43-.85-1.03-.85-1.79,0-.33.35-1.44,1.04-3.34.69-1.9,1.04-3.34,1.04-4.32s-.41-1.52-1.24-1.52c-1.34,0-2.52.75-3.54,2.25-.27.4-.48.89-.63,1.49-.9,3.54-1.42,5.57-1.56,6.1s-.27.87-.41,1.05c-.34.48-.8.73-1.37.73-.33,0-.61-.11-.86-.32s-.37-.48-.37-.82c0-.12.05-.39.14-.79l1.7-6.8c.25-1.05.38-1.73.37-2.06,0-.54-.17-.8-.51-.8s-.64.26-.89.77c-.25.51-.46,1.08-.62,1.69-.16.61-.26.94-.3,1-.11.14-.35.21-.72.21h-.04c-.42,0-.63-.15-.63-.45Z"/>
      <path class="cls-1" d="M306.74,53.28c0-.48.25-.72.76-.74h2.33c.14-.63.46-1.89.94-3.78.29-1.1.88-1.65,1.78-1.65.33,0,.6.11.84.32.23.22.35.49.35.81,0,.14-.06.46-.19.96-.12.5-.28,1.1-.45,1.82-.18.71-.3,1.22-.38,1.52h2.04c.49,0,.73.18.73.52,0,.49-.25.75-.75.77h-2.34l-1.82,7.32c-.22.81-.33,1.45-.32,1.91,0,.52.19.78.57.79.43,0,.93-.23,1.51-.69.58-.46,1.1-1.24,1.59-2.34.09-.18.16-.31.21-.39.05-.08.12-.15.2-.19s.2-.07.34-.07h.17c.46,0,.7.14.7.41,0,.16-.12.46-.35.9-.23.44-.54.92-.93,1.43-.39.51-.91.96-1.57,1.35-.66.39-1.34.59-2.04.59-.9,0-1.64-.25-2.23-.74-.59-.5-.89-1.14-.89-1.93,0-.22.11-.78.32-1.67l1.66-6.67h-2.05c-.48,0-.72-.18-.72-.55Z"/>
      <path class="cls-1" d="M317.59,60.11c0-2.14.75-3.99,2.24-5.54,1.49-1.55,3.38-2.33,5.68-2.33,1,0,1.8.24,2.42.73.62.49.93,1.12.93,1.91,0,1.03-.45,1.89-1.35,2.56-1.08.81-3.07,1.22-5.97,1.23h-.59c-.29,1.25-.44,2.15-.44,2.7,0,.8.21,1.42.61,1.84.41.42.97.64,1.68.64,1.77,0,3.3-.61,4.61-1.82.07-.07.14-.15.22-.23s.14-.14.18-.18c.04-.04.08-.08.12-.12.04-.05.08-.08.11-.08.03,0,.07-.01.12-.01.14,0,.3.1.48.29.18.2.26.37.26.52,0,.11-.07.26-.21.46-.14.2-.38.43-.71.68-.33.26-.73.49-1.18.71-.45.22-1.04.4-1.76.56-.72.15-1.49.23-2.33.23-1.59,0-2.85-.42-3.76-1.25-.91-.83-1.37-2-1.37-3.49ZM321.22,57.66c4.02,0,6.02-.93,6.02-2.8,0-.49-.16-.88-.48-1.18-.32-.3-.74-.45-1.25-.45-.22,0-.45.02-.69.07-.24.04-.55.16-.92.33s-.71.42-1.02.71c-.31.3-.62.73-.93,1.3-.31.57-.55,1.24-.73,2.01Z"/>
      <path class="cls-1" d="M331.12,56.48c.02-.11.05-.25.09-.45.04-.19.15-.53.32-1.02.17-.48.37-.91.61-1.28.23-.37.56-.71.97-1.02.41-.31.87-.46,1.38-.46,1.26,0,2.19.5,2.81,1.49,1.06-1.01,2.22-1.52,3.48-1.52.88,0,1.66.21,2.35.63s1.03,1.03,1.03,1.82c0,.55-.19,1.04-.58,1.44-.39.41-.84.61-1.37.61-.41,0-.74-.12-.97-.36-.23-.24-.35-.54-.35-.9,0-.79.43-1.38,1.29-1.75-.48-.33-.97-.49-1.45-.49-.45,0-.88.1-1.29.31-.41.21-.74.46-1,.76-.26.3-.47.56-.62.78-.15.22-.26.4-.31.52-.07.14-.14.41-.21.82l-1.7,6.75c-.25,1.12-.84,1.67-1.75,1.67-.34,0-.63-.11-.87-.32-.24-.21-.36-.48-.36-.82,0-.16.04-.39.12-.69l1.81-7.15c.2-.88.3-1.48.29-1.79,0-.55-.17-.83-.51-.83s-.62.26-.88.77c-.26.51-.47,1.08-.62,1.69-.15.61-.25.93-.28.97-.11.16-.29.24-.57.24h-.22c-.42,0-.63-.15-.63-.45Z"/>
      <path class="cls-1" d="M343.85,60.23c0-2.03.75-3.87,2.25-5.52,1.5-1.65,3.42-2.48,5.76-2.48,1.01,0,1.84.24,2.48.72s.96,1.1.96,1.88c0,.6-.19,1.1-.57,1.5-.38.4-.84.6-1.38.6-.38,0-.69-.11-.95-.34-.25-.22-.38-.53-.38-.9,0-.34.11-.7.34-1.07.22-.37.58-.62,1.07-.76-.42-.41-.94-.62-1.57-.62-.99,0-1.88.39-2.66,1.18-.55.55-1.03,1.41-1.43,2.58-.4,1.17-.66,2.14-.78,2.91-.12.77-.18,1.29-.18,1.56,0,.77.2,1.36.61,1.76.41.4.98.6,1.71.6,1.88,0,3.46-.64,4.77-1.92.36-.36.6-.54.73-.54.16,0,.33.1.51.3s.28.37.28.52c0,.11-.08.26-.23.46-.15.2-.4.43-.75.68-.34.26-.75.49-1.22.71-.47.22-1.07.4-1.8.56-.73.15-1.52.23-2.37.23-1.62,0-2.89-.4-3.82-1.21-.93-.81-1.39-1.94-1.39-3.41Z"/>
      <path class="cls-1" d="M357.77,62.17c0-.33.07-.73.22-1.21l2.97-11.96c.04-.18.11-.44.2-.8.09-.35.16-.63.21-.82-.16-.02-.36-.03-.59-.03s-.42,0-.53-.01c-.12,0-.24-.03-.35-.07-.12-.04-.2-.09-.26-.17-.06-.08-.09-.2-.09-.35,0-.31.1-.53.3-.65.07-.05.44-.1,1.11-.15s1.32-.08,1.94-.09l.95-.05c.43,0,.65.18.65.54,0,.09-.02.2-.05.34l-3.61,14.53c-.23.86-.34,1.46-.34,1.8,0,.54.16.81.49.82.34,0,.64-.26.89-.77.25-.51.46-1.08.62-1.69.16-.61.26-.94.3-1,.1-.14.31-.22.61-.22.51,0,.78.15.78.44,0,.12-.06.38-.18.78s-.29.87-.53,1.42c-.23.55-.58,1.03-1.05,1.44-.47.41-.99.61-1.56.61-.81,0-1.53-.24-2.16-.73-.63-.49-.95-1.14-.95-1.94Z"/>
      <path class="cls-1" d="M366.22,60.23c0-2.03.75-3.87,2.25-5.52,1.5-1.65,3.45-2.48,5.84-2.48,1.56,0,2.8.4,3.72,1.2.92.8,1.38,1.93,1.38,3.38,0,.88-.17,1.78-.51,2.71-.34.92-.83,1.79-1.47,2.59s-1.49,1.46-2.56,1.97c-1.07.51-2.24.77-3.52.77-1.56,0-2.81-.4-3.74-1.21-.93-.81-1.39-1.94-1.39-3.41ZM369.19,61.48c0,.84.22,1.45.67,1.81.44.37.96.55,1.55.55.4,0,.77-.06,1.12-.18.35-.12.66-.28.94-.49s.52-.43.75-.67c.22-.24.42-.52.59-.83.17-.32.32-.61.44-.87.12-.27.23-.55.34-.86.1-.31.17-.56.22-.76.04-.2.09-.4.15-.6l.05-.26c.31-1.22.46-2.13.46-2.75,0-.84-.22-1.44-.66-1.8-.44-.36-.96-.54-1.55-.54-2.27,0-3.8,1.83-4.59,5.5-.31,1.22-.46,2.13-.46,2.75Z"/>
      <path class="cls-1" d="M380.58,60.23c0-2.03.75-3.87,2.25-5.52,1.5-1.65,3.42-2.48,5.76-2.48,1.01,0,1.84.24,2.48.72s.96,1.1.96,1.88c0,.6-.19,1.1-.57,1.5-.38.4-.84.6-1.38.6-.38,0-.69-.11-.95-.34-.25-.22-.38-.53-.38-.9,0-.34.11-.7.34-1.07.22-.37.58-.62,1.07-.76-.42-.41-.94-.62-1.57-.62-.99,0-1.88.39-2.66,1.18-.55.55-1.03,1.41-1.43,2.58-.4,1.17-.66,2.14-.78,2.91-.12.77-.18,1.29-.18,1.56,0,.77.2,1.36.61,1.76.41.4.98.6,1.71.6,1.88,0,3.46-.64,4.77-1.92.36-.36.6-.54.73-.54.16,0,.33.1.51.3s.28.37.28.52c0,.11-.08.26-.23.46-.15.2-.4.43-.75.68-.34.26-.75.49-1.22.71-.47.22-1.07.4-1.8.56-.73.15-1.52.23-2.37.23-1.62,0-2.89-.4-3.82-1.21-.93-.81-1.39-1.94-1.39-3.41Z"/>
      <path class="cls-1" d="M394.08,63.68c0-.16.04-.38.11-.67l3.54-14.32c.2-.77.33-1.28.38-1.54-.39-.03-.69-.04-.89-.04h-.1c-.56,0-.85-.16-.86-.48,0-.29.15-.47.44-.55.29-.07.93-.13,1.93-.16.69-.04,1.25-.06,1.7-.08.02,0,.06,0,.12-.01s.11-.01.14-.01c.43,0,.65.18.65.54l-.08.4-2.58,10.4c.5-.34,1.07-.82,1.7-1.44.63-.62,1.17-1.16,1.61-1.63.45-.47.98-.89,1.59-1.27s1.24-.57,1.87-.57c.68,0,1.16.22,1.45.67.28.44.43.93.43,1.47,0,.81-.21,1.4-.61,1.78-.41.38-.86.57-1.35.57-.38,0-.69-.11-.93-.33-.25-.22-.37-.52-.37-.9,0-.41.15-.81.46-1.2.3-.39.75-.62,1.33-.69-.14-.24-.31-.35-.51-.35-.63,0-1.28.26-1.94.78-.66.52-1.38,1.19-2.15,2.01s-1.39,1.4-1.85,1.74v.03c2.77.31,4.15,1.26,4.15,2.85,0,.23-.03.59-.09,1.08-.06.49-.09.91-.09,1.25,0,.58.18.87.54.87.41,0,.76-.26,1.06-.78.29-.52.52-1.09.67-1.7s.26-.94.32-1c.11-.12.38-.19.81-.2.44,0,.67.15.67.44,0,.12-.07.39-.22.81-.15.42-.36.89-.63,1.42s-.67,1-1.18,1.4c-.51.41-1.08.61-1.69.61-.79,0-1.5-.25-2.13-.74-.63-.5-.94-1.18-.94-2.04,0-.14.02-.36.07-.66s.07-.52.07-.67c0-.98-.82-1.63-2.47-1.96-.74,3.23-1.23,5.01-1.48,5.37-.38.47-.83.7-1.35.71-.34,0-.64-.11-.88-.33s-.36-.5-.36-.84Z"/>
      <path class="cls-1" d="M408.52,56.48c0-.2.09-.51.27-.94.18-.42.43-.89.74-1.39.31-.5.75-.95,1.3-1.32s1.15-.57,1.78-.57c.79,0,1.46.23,2.01.68.55.45.83,1.04.83,1.75,0,.34-.32,1.36-.96,3.05-.64,1.69-.96,3.03-.96,4,0,.77.19,1.32.57,1.63.38.32.83.47,1.35.47.55,0,1.04-.26,1.46-.77.42-.51.63-.97.63-1.36v-.44c0-.55.27-1.94.82-4.17.54-2.22.88-3.45,1-3.67.34-.59.83-.88,1.48-.88h.03c.33,0,.62.1.86.31.24.21.37.48.37.82,0,.2-.3,1.46-.91,3.77s-.91,3.77-.91,4.38c0,1.34.59,2,1.77,2,.46,0,.88-.15,1.26-.45s.71-.76.99-1.38c.28-.62.52-1.23.71-1.82.19-.59.4-1.35.63-2.27.09-.31.13-.58.13-.83,0-.55-.26-1.08-.79-1.59-.52-.51-.78-.95-.78-1.33,0-.45.19-.89.58-1.31s.84-.64,1.37-.64c.43,0,.82.19,1.17.57s.53.97.53,1.78c0,.86-.25,2.19-.75,3.99-.5,1.8-1.09,3.21-1.77,4.22-.91,1.37-2.07,2.06-3.48,2.06-1.7,0-2.93-.46-3.68-1.38h-.03c-.79.91-1.74,1.38-2.86,1.38-1.25,0-2.31-.27-3.17-.82-.86-.55-1.29-1.47-1.29-2.78,0-.9.34-2.29,1.03-4.17s1.03-2.99,1.03-3.34-.14-.51-.42-.51c-.36,0-.74.22-1.15.67-.39.45-.71,1.03-.96,1.74s-.39,1.08-.4,1.09c-.11.12-.31.18-.6.18h-.04c-.5,0-.75-.15-.75-.45Z"/>
      <path class="cls-1" d="M429.24,56.48c0-.27.14-.72.42-1.34.28-.62.76-1.26,1.44-1.91s1.44-.97,2.27-.97c.77,0,1.44.23,1.98.68.55.46.82,1.04.82,1.74,0,.43-.48,1.87-1.44,4.31-.96,2.44-1.44,3.89-1.44,4.34,0,.34.14.51.43.51.37,0,.72-.18,1.05-.53.33-.35.59-.73.76-1.13s.33-.8.48-1.2c.15-.4.23-.6.25-.62.11-.12.3-.19.57-.2h.16c.44,0,.66.15.68.44,0,.12-.05.34-.16.65-.11.31-.28.67-.51,1.08-.24.41-.51.8-.82,1.17s-.7.69-1.18.95-.97.4-1.51.4c-.74,0-1.39-.22-1.96-.65-.57-.43-.85-1.03-.85-1.79,0-.43.48-1.87,1.44-4.3.96-2.44,1.44-3.88,1.44-4.33,0-.34-.15-.51-.45-.51-.45,0-.91.32-1.38.96-.27.38-.48.76-.63,1.14-.15.38-.24.67-.28.88-.04.21-.11.38-.22.51s-.29.2-.54.2h-.17c-.44,0-.66-.16-.66-.47ZM433.93,47.67c0-.48.2-.91.59-1.28.39-.37.83-.55,1.33-.55.38,0,.71.13.96.38.26.25.39.56.39.92,0,.45-.19.87-.58,1.25s-.83.58-1.35.58c-.38,0-.7-.12-.96-.36s-.38-.55-.38-.93Z"/>
      <path class="cls-1" d="M439.01,62.12c0-.62.19-1.12.57-1.53s.83-.61,1.37-.61c.4,0,.72.12.96.35s.37.53.37.88c0,.32-.11.66-.32,1.02-.21.36-.56.62-1.03.77.61.55,1.45.83,2.52.84,1.37,0,2.34-.29,2.91-.88.57-.59.85-1.17.85-1.75,0-.39-.15-.72-.46-.97-.31-.26-.64-.43-1.01-.52-.36-.09-.81-.19-1.34-.29-.53-.11-.9-.21-1.11-.29-.52-.18-.99-.49-1.42-.94-.43-.45-.64-1.03-.64-1.73,0-.32.07-.69.2-1.11.14-.41.37-.87.69-1.38.32-.5.84-.92,1.55-1.26.71-.33,1.56-.5,2.56-.5,1.12,0,2.02.23,2.69.68.67.45,1,1.04,1,1.77,0,.6-.19,1.06-.56,1.38s-.76.49-1.17.49c-.35,0-.64-.11-.86-.32-.22-.21-.33-.48-.33-.78,0-.67.36-1.17,1.08-1.52-.53-.47-1.17-.7-1.94-.7-1.05,0-1.78.23-2.2.69-.42.46-.63.91-.63,1.34,0,.29.09.53.29.71.22.21.49.35.82.43.33.08.73.16,1.23.26s.91.2,1.25.33c.6.21,1.14.58,1.64,1.09.5.52.75,1.19.75,2.02,0,.41-.09.86-.26,1.34-.17.48-.46.99-.86,1.53-.4.54-1.01.99-1.84,1.34-.83.35-1.82.53-2.96.53-1.34,0-2.4-.25-3.18-.74-.78-.5-1.17-1.16-1.17-1.98Z"/>
      <path class="cls-1" d="M452.8,60.11c0-2.14.75-3.99,2.24-5.54,1.49-1.55,3.38-2.33,5.68-2.33,1,0,1.8.24,2.42.73.62.49.93,1.12.93,1.91,0,1.03-.45,1.89-1.35,2.56-1.08.81-3.07,1.22-5.97,1.23h-.59c-.29,1.25-.44,2.15-.44,2.7,0,.8.21,1.42.61,1.84.41.42.97.64,1.68.64,1.77,0,3.3-.61,4.61-1.82.07-.07.14-.15.22-.23s.14-.14.18-.18c.04-.04.08-.08.12-.12.04-.05.08-.08.11-.08.03,0,.07-.01.12-.01.14,0,.3.1.48.29.18.2.26.37.26.52,0,.11-.07.26-.21.46-.14.2-.38.43-.71.68-.33.26-.73.49-1.18.71-.45.22-1.04.4-1.76.56-.72.15-1.49.23-2.33.23-1.59,0-2.85-.42-3.76-1.25-.91-.83-1.37-2-1.37-3.49ZM456.43,57.66c4.02,0,6.02-.93,6.02-2.8,0-.49-.16-.88-.48-1.18-.32-.3-.74-.45-1.25-.45-.22,0-.45.02-.69.07-.24.04-.55.16-.92.33s-.71.42-1.02.71c-.31.3-.62.73-.93,1.3-.31.57-.55,1.24-.73,2.01Z"/>
    </g>
  </g>
</svg>